<?xml version="1.0" encoding="UTF-8" standalone="no"?>
<svg
   xmlns:dc="http://purl.org/dc/elements/1.1/"
   xmlns:cc="http://creativecommons.org/ns#"
   xmlns:rdf="http://www.w3.org/1999/02/22-rdf-syntax-ns#"
   xmlns:svg="http://www.w3.org/2000/svg"
   xmlns="http://www.w3.org/2000/svg"
   xmlns:sodipodi="http://sodipodi.sourceforge.net/DTD/sodipodi-0.dtd"
   xmlns:inkscape="http://www.inkscape.org/namespaces/inkscape"
   version="1.1"
   id="svg10"
   width="1892.7911"
   height="540.21649"
   viewBox="0 0 1892.7911 540.21649"
   sodipodi:docname="logo salaterie2.svg"
   inkscape:version="1.0.1 (3bc2e813f5, 2020-09-07)">
  <metadata
     id="metadata16">
    <rdf:RDF>
      <cc:Work
         rdf:about="">
        <dc:format>image/svg+xml</dc:format>
        <dc:type
           rdf:resource="http://purl.org/dc/dcmitype/StillImage" />
        <dc:title></dc:title>
      </cc:Work>
    </rdf:RDF>
  </metadata>
  <defs
     id="defs14" />
  <sodipodi:namedview
     pagecolor="#ffffff"
     bordercolor="#666666"
     borderopacity="1"
     objecttolerance="10"
     gridtolerance="10"
     guidetolerance="10"
     inkscape:pageopacity="0"
     inkscape:pageshadow="2"
     inkscape:window-width="1920"
     inkscape:window-height="986"
     id="namedview12"
     showgrid="false"
     inkscape:zoom="0.33080218"
     inkscape:cx="1225.8226"
     inkscape:cy="172.71476"
     inkscape:window-x="-11"
     inkscape:window-y="-11"
     inkscape:window-maximized="1"
     inkscape:current-layer="g18"
     fit-margin-top="0"
     fit-margin-left="0"
     fit-margin-right="0"
     fit-margin-bottom="0" />
  <g
     inkscape:groupmode="layer"
     inkscape:label="Image"
     id="g18"
     transform="translate(1003.8823,-575.37944)">
    <path
       style="opacity:0.97;fill:#9eff5a;fill-opacity:0.94716245;stroke-width:1.52745"
       d="m -786.02282,1082.671 c -42.69059,-8.5722 -86.81115,-12.0463 -143.56362,-11.3043 l -40.3507,0.5276 0.6402,-10.7599 c 0.4407,-7.4072 -0.347,-15.1849 -2.5281,-24.962 -6.016,-26.9668 -3.7095,-38.70967 9.3378,-47.54023 10.054,-6.80469 24.8972,-9.88719 52.3814,-10.87798 l 23.14694,-0.83451 v -4.16516 c 0,-2.2909 -0.42479,-8.28117 -0.944,-13.31177 l -0.94401,-9.14656 -18.40843,-4.29607 c -32.677,-7.62594 -66.2227,-22.32755 -86.6103,-37.95759 l -10.01666,-7.6792 0.4045,-40.27881 0.4046,-40.27875 11.38366,-6.56217 c 25.5355,-14.71975 73.8274,-25.819 151.78355,-34.88537 31.18516,-3.62686 101.08059,-7.95725 211.73807,-13.11821 120.16434,-5.60438 156.54292,-8.22024 214.01483,-15.38873 72.96609,-9.10116 173.48926,-20.18988 221.60404,-24.44511 78.5302,-6.94516 114.234218,-8.25206 234.505588,-8.5841 110.996342,-0.30643 139.268852,-1.07122 228.434232,-6.17923 88.2142,-5.05348 152.8558,-7.18054 230.7111,-7.5915 53.3387,-0.2815 86.2038,-1.07128 94.1058,-2.26137 6.6785,-1.0058 34.6825,-5.56516 62.2312,-10.13189 27.5488,-4.56674 58.6265,-9.43968 69.0616,-10.82871 40.475,-5.3877 68.4008,1.36693 76.0354,18.39139 2.8542,6.36505 3.8959,18.5564 1.7027,19.92909 -3.4048,2.13106 -183.724,22.8748 -255.3249,29.37239 -56.9147,5.16478 -57.8526,5.28389 -34.9102,4.43401 24.9954,-0.92596 182.4341,-10.78053 204.7628,-12.81675 38.7024,-3.5293 82.0679,-6.72988 82.6386,-6.0991 0.3417,0.3775 -0.071,5.4688 -0.9167,11.31412 -1.1043,7.6303 -1.0428,12.8001 0.2176,18.33015 2.2148,9.71682 3.9564,11.82633 9.0286,10.93577 2.2228,-0.39031 13.697,-2.45977 25.4979,-4.59882 l 21.4565,-3.88916 10.1954,3.88632 c 5.6075,2.13748 12.8571,5.40125 16.1101,7.25281 l 5.9146,3.36643 v 48.31292 48.31293 l -11.742,12.21926 c -17.9936,18.72518 -14.5322,17.65439 -60.3552,18.67108 -40.9435,0.90841 -119.2478,5.9283 -196.5597,12.60086 -48.4566,4.18217 -58.3192,5.12392 -103.2128,9.85596 -16.2788,1.71586 -38.1357,3.8396 -48.5708,4.71951 -10.4351,0.87978 -24.4371,2.60296 -31.1156,3.82918 l -12.1427,2.2296 22.7676,-0.81732 c 12.5221,-0.44952 28.5732,-1.78359 35.6691,-2.96466 31.5889,-5.25769 343.9995,-13.06485 346.6855,-8.66369 1.9061,3.12335 -30.0105,22.41783 -51.3373,31.03492 -26.5751,10.73756 -33.6032,11.74021 -123.5783,17.62844 -45.637,2.98669 -91.5144,6.09528 -101.9495,6.90806 -47.424,3.69374 -97.0994,6.17615 -104.6036,5.2273 -10.2455,-1.29546 -55.7212,2.55541 -50.2103,4.25183 2.1711,0.66832 0.3864,0.7999 -4.1794,0.30808 -4.7385,-0.51046 -7.9686,-0.2516 -7.9686,0.63865 0,0.82749 -7.9765,1.96129 -17.8346,2.53506 -40.1522,2.33684 -164.37709,13.1471 -301.669822,26.2518 -100.81685,9.623 -341.642268,30.1873 -440.931288,37.6515 -22.12247,1.663 -71.98333,5.422 -110.80199,8.3532 -120.82755,9.1236 -225.0972,15.9192 -259.54991,16.9155 -20.42568,0.5907 -25.92705,0.1983 -41.74048,-2.977 z m 621.55371,-50.6812 c 41.32305,-3.7695 84.695238,-7.5799 96.382548,-8.4675 11.68736,-0.8875 28.07994,-2.3112 36.42806,-3.1637 22.2396704,-2.2712 128.692528,-9.9296 213.996352,-15.3952 68.1718,-4.368 87.45822,-6.08253 68.42083,-6.08253 -3.98005,0 -25.09692,-1.45192 -46.92642,-3.22655 -70.76324,-5.75247 -135.644242,-2.59364 -257.499382,12.53698 -64.860618,8.0537 -147.259638,20.3177 -180.450308,26.8578 -19.3464,3.8121 -26.51213,6.4091 -13.07373,4.7381 4.17403,-0.5191 41.39894,-4.0279 82.72205,-7.7974 z m 586.99138,-90.91128 c -0.5044,-0.51076 -1.8135,-0.56536 -2.9092,-0.12129 -1.2108,0.49067 -0.8512,0.85497 0.917,0.92868 1.6,0.0667 2.4966,-0.29656 1.9922,-0.80733 z"
       id="path50" />
    <path
       style="fill:#000000;stroke-width:2.0002"
       d="m -497.80463,1113.8385 c -21.51101,-4.5295 -36.70957,-15.2548 -41.74535,-29.4587 -1.83418,-5.1733 -4.17302,-10.9855 -5.19726,-12.9163 -3.82237,-7.2044 5.50534,-28.3257 18.85285,-42.6892 9.88559,-10.6387 41.91382,-34.92951 58.36956,-44.26867 16.52621,-9.37942 16.99755,-11.25261 9.37007,-37.23294 -3.61512,-12.31305 -7.08586,-29.90109 -8.0191,-40.63495 -0.90474,-10.40895 -2.67946,-21.5532 -3.94368,-24.76493 -3.35525,-8.52438 -2.95701,-35.22267 0.64506,-43.23847 6.29398,-14.00655 25.00623,-29.61161 35.50738,-29.61161 8.32938,0 11.76396,1.86425 15.05095,8.16918 2.97326,5.70371 2.14625,21.71296 -1.12185,21.71296 -2.80177,0 -6.62272,12.19113 -6.7587,21.56455 -0.0743,5.1226 1.46846,17.38186 3.42857,27.24297 1.96028,9.86109 5.49307,28.0145 7.85079,40.34088 3.28677,17.18304 5.01792,22.40763 7.42065,22.39449 6.99426,-0.0379 60.68351,-30.96668 86.71898,-49.95597 8.35709,-6.09538 12.39679,-7.88233 15.56425,-6.88526 6.11084,1.92402 5.82243,13.63423 -0.53962,21.90839 -5.9849,7.78331 -54.6494,41.3816 -78.69788,54.3333 -17.53077,9.44138 -17.89407,9.78603 -17.44802,16.54497 2.00004,30.30091 1.1857,59.48321 -1.93198,69.22571 -7.93114,24.7847 -23.99687,44.0691 -44.45251,53.3588 -12.06059,5.4769 -35.11758,7.7681 -48.92316,4.8608 z m 50.62479,-17.9256 c 4.53852,-2.1796 11.37596,-7.2887 15.19411,-11.3537 l 6.94206,-7.391 -7.87048,5.7353 c -4.32868,3.1546 -12.46225,8.2475 -18.07461,11.3179 -11.63966,6.3674 -8.67261,7.6852 3.80892,1.6915 z m -38.11254,-17.302 c 13.29868,-4.1587 16.94072,-7.7865 26.17565,-26.0742 6.85931,-13.5838 7.87953,-17.4703 8.62039,-32.8415 0.84247,-17.4808 -0.43762,-20.70749 -5.71339,-14.4017 -1.39556,1.6682 -12.21441,9.6702 -24.04205,17.7823 -24.04104,16.4889 -30.55573,23.1611 -37.72934,38.6413 -3.95955,8.5446 -4.51385,11.5651 -2.8048,15.2858 3.4362,7.4812 15.03206,8.0065 35.49354,1.608 z m 583.954894,34.0689 c -11.54606,-5.8748 -21.97049,-19.1696 -26.67693,-34.0221 -6.60225,-20.8357 -6.38375,-67.0633 0.46271,-97.91922 2.74794,-12.38514 4.36361,-21.79802 3.59023,-20.9175 -0.7734,0.88034 -7.97915,11.70146 -16.01292,24.04677 -20.71531,31.83305 -34.22206,47.90315 -47.59186,56.62385 -14.3807726,9.3802 -21.7040056,10.9062 -31.952709,6.6583 -29.222648,-12.1115 -36.953747,-52.3672 -20.568515,-107.09973 2.206718,-7.37174 3.647054,-14.49006 3.200611,-15.81861 -0.924618,-2.75137 -15.061568,16.5005 -27.309536,37.1901 -9.145951,15.44929 -36.353075,47.44054 -47.552705,55.91414 -5.8375,4.4167 -9.66853,5.56 -20.16906,6.0194 -15.46485,0.6768 -21.18224,-2.9527 -28.98104,-18.3974 -3.98807,-7.89789 -4.90043,-12.77226 -4.97896,-26.60292 -0.0523,-9.31326 0.65109,-22.12175 1.56426,-28.46332 l 1.66005,-11.53033 -19.62983,13.11068 c -10.79659,7.21077 -25.20566,15.75009 -32.0204,18.97638 -6.81493,3.22626 -13.45354,7.13644 -14.7529,8.68931 -1.78837,2.13777 -1.83258,7.98829 -0.18074,24.0888 2.35873,23.0013 0.47916,45.06 -4.93457,57.9128 -5.50735,13.0753 -19.87727,32.5945 -28.53741,38.7637 -24.64535,17.5566 -65.53616,18.3369 -89.9875,1.7173 -7.8727,-5.3512 -17.11766,-18.6665 -17.11766,-24.6546 0,-2.3008 -1.02665,-5.2015 -2.28163,-6.4462 -3.06283,-3.0384 2.64834,-20.3852 10.29951,-31.2834 10.56323,-15.0457 39.81538,-39.0811 67.7951,-55.70432 15.74821,-9.3565 15.78575,-9.61807 6.17428,-43.02752 -3.30966,-11.50461 -6.27913,-26.7445 -6.59863,-33.86642 -0.31973,-7.1219 -2.11474,-20.12065 -3.98927,-28.88608 -2.23162,-10.43584 -2.96184,-19.54332 -2.11555,-26.38433 2.95781,-23.90871 30.79915,-47.6969 48.11122,-41.10707 8.3065,3.16192 10.85944,23.22679 3.84065,30.18892 -2.93431,2.91092 -6.73521,15.16301 -6.75187,21.76616 0,2.41189 1.3321,9.50173 2.97428,15.75526 1.64197,6.25353 3.50967,15.93436 4.15053,21.51276 0.64084,5.57838 3.03012,19.33136 5.30953,30.56206 3.20804,15.80706 4.87893,20.41827 7.39693,20.4139 4.83577,0 62.98703,-32.46098 75.76981,-42.28504 8.76197,-6.73385 12.92736,-12.0415 19.96722,-25.44226 11.57398,-22.03151 21.96628,-35.38225 32.46824,-41.7105 4.65923,-2.80772 12.09453,-7.67791 16.522817,-10.82291 21.592119,-15.33472 44.638668,-3.64861 56.51289,28.65559 2.410743,6.55873 5.061887,11.92497 5.891512,11.92497 0.829425,0 2.905807,-2.11606 4.614262,-4.70246 5.021932,-7.60282 21.2637744,-17.21112 29.0936994,-17.21112 9.2754936,0 19.2870236,6.43641 23.4068336,15.04825 3.91656,8.18731 2.70074,13.48542 -7.97493,34.75532 -8.24805,16.433 -17.4833726,41.8137 -16.3143496,44.83538 0.492037,1.27219 -0.757321,10.30615 -2.776254,20.07561 -7.479274,36.19227 -7.149313,50.63335 1.156574,50.63335 8.3016676,0 33.5336296,-30.69478 66.3227896,-80.68182 14.66053,-22.34986 16.62504,-26.69334 30.18581,-66.7368 33.920236,-100.16337 40.887596,-118.25461 61.030546,-158.47119 11.00202,-21.96617 23.11182,-43.54048 26.91049,-47.94292 3.79889,-4.40223 11.52638,-15.96762 17.1725,-25.70065 18.20936,-31.39039 40.18589,-55.80071 52.77244,-58.6166 18.38791,-4.11378 35.29171,10.61255 41.85359,36.46257 2.89333,11.39846 -1.78155,40.94792 -9.65547,61.03091 -9.08449,23.16982 -34.88841,71.79705 -45.2986,85.36453 -5.59008,7.28567 -16.91162,24.00413 -25.15866,37.15226 -21.66945,34.54676 -32.64274,50.5142 -54.85505,79.82059 -10.85219,14.31814 -20.98503,29.55804 -22.51734,33.86644 -7.54395,21.21194 -23.6661,85.80002 -22.80475,91.35928 0.52155,3.3665 -0.38901,13.7408 -2.02355,23.054 -3.74547,21.3393 -2.71522,46.7375 2.19646,54.1598 11.80534,17.8392 35.83754,1.3866 70.74626,-48.4338 29.92954,-42.71444 66.07134,-100.50213 85.18947,-136.21128 13.69795,-25.5851 24.05572,-40.7979 32.42947,-47.62976 16.58809,-13.53423 33.66499,-22.97578 41.6863,-23.04749 14.99209,-0.13349 30.75135,15.41838 37.66329,37.16919 1.85245,5.82922 3.92941,10.59841 4.61545,10.59841 0.68623,0 4.36201,-3.21613 8.16851,-7.14702 8.91019,-9.2013 19.90317,-14.76656 29.16842,-14.76656 5.85455,0 8.92746,1.56961 15.1421,7.7343 10.61321,10.52767 10.26096,15.65884 -3.01564,43.93931 -10.97752,23.38298 -12.61167,28.86812 -18.17745,61.01354 -8.61455,49.75556 -5.95096,61.45266 10.80843,47.46406 17.36429,-14.49369 69.17216,-91.48383 78.35325,-116.43881 3.35567,-9.12063 6.94367,-17.09936 7.97332,-17.73067 1.02984,-0.63132 3.66071,-7.40778 5.84674,-15.0588 4.31461,-15.10265 26.27607,-74.95001 30.09463,-82.01116 4.69236,-8.67698 3.55047,-9.2318 -16.22358,-7.88311 -49.35956,3.36653 -65.73356,3.67331 -81.75028,1.53136 -43.60962,-5.83199 -14.97923,-14.71117 59.15702,-18.34685 25.40488,-1.24568 47.63303,-3.02088 49.39612,-3.94484 1.76307,-0.92375 4.84278,-5.98021 6.84405,-11.23627 8.57058,-22.50983 23.20438,-50.59446 31.84788,-61.12094 5.12274,-6.2388 9.31404,-12.24789 9.31404,-13.35354 0,-3.60559 14.26529,-24.52009 22.79692,-33.42279 4.58232,-4.78174 11.2396,-9.93641 14.79408,-11.45481 14.97621,-6.39777 40.97796,-1.08294 42.37392,8.66143 0.89529,6.24936 -9.7601,25.08666 -22.81941,40.34151 -6.0819,7.10417 -15.15174,20.99938 -20.1556,30.8782 -5.00386,9.87863 -12.64821,24.23661 -16.98774,31.90637 -4.33971,7.66974 -7.90421,15.20544 -7.92129,16.74615 -0.0261,2.34835 5.40531,2.58781 33.60774,1.48057 18.50138,-0.72614 35.44632,-1.53853 37.65545,-1.80489 7.16257,-0.8642 5.13499,8.56961 -3.01245,14.01653 -6.11283,4.08668 -8.5049,4.52933 -18.35236,3.3958 -7.33909,-0.84468 -11.79729,-0.54267 -12.6703,0.85862 -0.83444,1.3391 -9.62474,2.16186 -23.09715,2.16186 -25.66435,0 -28.01866,1.2668 -33.32076,17.9293 -1.91752,6.02624 -10.45857,27.54137 -18.98013,47.81142 -28.00664,66.61906 -47.5957,122.95168 -60.26962,173.31646 -2.34367,9.3133 -6.01302,22.6306 -8.15426,29.5939 -4.55841,14.8239 -5.01209,27.8911 -1.15014,33.1301 4.47708,6.0736 13.11874,0.7987 28.75168,-17.5508 31.91938,-37.466 96.92351,-119.85008 115.82395,-146.79142 4.60841,-6.56911 6.77377,-8.05405 11.02832,-7.56378 5.73528,0.66099 7.48872,4.73513 5.47059,12.71127 -0.66977,2.64735 -7.15775,12.53557 -14.41772,21.97414 -7.25978,9.43837 -15.84239,21.60678 -19.07234,27.04054 -7.43267,12.50468 -38.88674,55.14835 -57.13445,77.45995 -39.35849,48.1236 -47.24445,57.329 -55.78751,65.121 -8.0892,7.3778 -10.46099,8.4665 -18.44495,8.4665 -17.02909,0 -34.72515,-13.7646 -39.30606,-30.574 -3.54022,-12.9901 -0.68883,-49.2984 6.03974,-76.9071 3.32511,-13.64376 5.78487,-25.06572 5.46616,-25.38186 -0.31872,-0.31616 -6.5404,8.15762 -13.82589,18.83054 -18.07099,26.47402 -33.45449,42.86182 -46.10472,49.11492 -12.48695,6.1726 -16.5192,6.3547 -28.4428,1.2846 -24.69094,-10.4987 -33.07374,-50.51527 -20.5641,-98.16714 3.08313,-11.74487 5.28039,-22.32236 4.88276,-23.50589 -0.68543,-2.03977 -14.39262,17.72849 -29.77732,42.94423 -3.86597,6.3364 -16.52464,21.34481 -28.13054,33.3521 l -21.10131,21.8312 -13.47281,0.849 c -9.97257,0.628 -14.71696,0.04 -18.26161,-2.264 -7.84799,-5.1008 -15.61484,-21.58244 -17.202,-36.50358 l -1.42066,-13.35693 -5.93572,9.84437 c -11.64587,19.31504 -31.51008,48.04224 -37.9623,54.90024 -3.6081,3.8349 -9.30543,11.0066 -12.66107,15.9372 -10.29731,15.1305 -43.56826,48.4305 -55.46055,55.5092 -13.87488,8.2589 -32.37426,10.461 -42.897896,5.1064 z m -375.249934,-15.5987 c 7.58271,-3.1429 23.25261,-16.4465 23.25261,-19.7417 0,-1.183 -2.93713,0.671 -6.52696,4.1205 -3.58981,3.4491 -11.49746,8.9878 -17.57254,12.3074 -11.44525,6.2545 -10.9474,8.202 0.84689,3.3138 z m -33.528,-19.4828 c 11.49446,-4.2403 14.67256,-7.7855 24.67406,-27.5227 5.46517,-10.7853 6.72696,-15.8546 7.56202,-30.3801 0.99751,-17.3566 -0.27332,-20.78927 -5.41978,-14.6379 -1.28712,1.5383 -11.84952,9.3111 -23.47209,17.2729 -23.72012,16.2488 -35.11879,27.8668 -40.14192,40.914 -7.56323,19.6445 7.02702,25.3358 36.79771,14.3538 z m 202.63875,-97.74929 c 12.079867,-12.89395 54.252563,-70.2404 60.761237,-82.62295 1.880749,-3.5781 1.490754,-7.00558 -2.025571,-17.80218 -2.39509,-7.35401 -4.277861,-16.05589 -4.183663,-19.33714 0.359883,-12.55787 -5.971858,-16.21844 -17.671755,-10.21692 -5.679849,2.91351 -18.833346,22.68713 -25.292613,38.02225 -1.618486,3.84245 -5.626435,12.79853 -8.906565,19.90251 -11.20646,24.27088 -21.57729,72.32455 -16.66159,77.20073 2.95821,2.93442 8.22696,0.99507 13.98052,-5.1463 z m 420.38804,0 c 15.11741,-15.26999 62.34879,-80.56587 62.34879,-86.19526 0,-1.59989 -1.86188,-9.64059 -4.13747,-17.86833 -2.2756,-8.22775 -3.55328,-15.8971 -2.83932,-17.04298 0.71393,-1.14588 -0.15659,-4.2853 -1.9338,-6.97629 -7.76505,-11.75564 -22.05786,-2.04931 -34.26766,23.27143 -4.41825,9.16246 -8.65293,17.12466 -9.41025,17.69361 -2.10327,1.57997 -13.25171,31.09995 -17.66551,46.77691 -2.15933,7.66974 -4.53655,21.34084 -5.28242,30.38018 -1.28872,15.618 -1.15398,16.43518 2.71078,16.43518 2.23705,0 6.95151,-2.91351 10.47686,-6.47445 z m 230.65479,-52.29376 c 6.70488,-18.62656 16.78008,-45.87967 22.38923,-60.56236 5.60914,-14.68269 9.8587,-27.03278 9.44357,-27.44456 -1.11419,-1.10524 -17.86354,36.90187 -27.37078,62.10905 -9.11222,24.15972 -24.21637,73.45669 -24.04646,78.48266 0.0603,1.75728 1.7472,-1.73535 3.75086,-7.76159 2.00368,-6.02623 9.12869,-26.19667 15.83358,-44.8232 z M 85.429884,975.98922 c -0.64105,-1.58913 -1.11701,-1.1172 -1.21341,1.20365 -0.0864,2.09993 0.38761,3.27667 1.05476,2.61468 0.66735,-0.66199 0.73885,-2.3802 0.15865,-3.81833 z m 8.49768,-38.47326 c 0.0603,-1.09568 -0.76576,-0.64745 -1.83637,0.99606 -1.07083,1.64353 -1.89724,4.33292 -1.83639,5.97645 0.11646,3.15534 3.4635,-3.19899 3.67276,-6.97251 z m 81.042966,-114.0502 c 33.55993,-51.47319 60.92329,-101.07555 88.60739,-160.6211 9.07866,-19.5272 14.94891,-46.81338 11.6272,-54.04525 -7.91247,-17.22626 -28.49023,8.55785 -52.47665,65.75367 -17.46891,41.6547 -20.24918,49.04336 -40.45801,107.52293 -21.93877,63.48582 -22.02513,63.97467 -7.29993,41.38975 z m 405.07362,6.47446 c 0,-1.09567 -0.87602,-0.64744 -1.94664,0.99609 -1.07082,1.64351 -1.94683,3.88466 -1.94683,4.98034 0,1.09568 0.87601,0.64747 1.94683,-0.99606 1.07062,-1.64352 1.94664,-3.88469 1.94664,-4.98037 z m -372.31399,-181.03619 3.01828,-6.22524 -5.96345,6.72427 c -6.38795,7.20319 -16.95799,25.94548 -19.2394,34.11466 -1.39939,5.01063 16.55654,-23.00526 22.18457,-34.61369 z m -1058.0607,430.91757 c -20.70147,-4.9553 -38.2268,-20.1584 -48.74704,-42.2875 -11.80775,-24.8372 -18.17363,-58.41881 -12.49197,-65.89772 4.795,-6.31191 10.48308,-2.18936 23.81512,17.26054 25.39825,37.05288 40.84361,53.04858 48.43374,50.15938 4.10937,-1.5643 13.7136,-15.1193 21.27161,-30.022 3.38939,-6.6834 12.19495,-29.5433 19.56777,-50.79966 7.37264,-21.25636 20.62114,-57.02549 29.44095,-79.48691 8.82001,-22.46141 21.44091,-55.18236 28.04679,-72.71321 16.07536,-42.66235 28.23134,-71.97375 38.82968,-93.63073 4.82593,-9.8611 9.40384,-20.49676 10.17321,-23.63499 l 1.39897,-5.70569 -12.82716,1.38574 c -7.05492,0.76219 -19.60492,3.03144 -27.88912,5.04292 -34.38536,8.34925 -66.7355,10.32607 -79.89403,4.88173 -9.19215,-3.803 -20.52049,-14.38546 -20.52049,-19.16918 0,-1.95112 2.27718,-5.02758 5.06027,-6.83666 5.66138,-3.67967 63.1493,-13.88285 94.3501,-16.74574 11.0456,-1.01341 27.76461,-3.18923 37.15338,-4.83513 9.38875,-1.64571 20.4436,-3.50518 24.56621,-4.13192 6.2484,-0.94986 8.37357,-2.62523 12.76973,-10.0659 6.35521,-10.75756 9.8374,-12.81982 21.64575,-12.81982 11.85475,0 17.41449,2.26765 27.31617,11.14124 l 8.18437,7.33467 34.2482,-2.43758 c 33.3828,-2.37602 86.15667,-1.25027 86.15667,1.83796 0,4.74828 -9.1546,8.14448 -30.16593,11.19145 -12.65324,1.83497 -24.89116,4.56161 -27.19547,6.05932 -4.86228,3.16033 -40.64479,9.8593 -67.2442,12.58914 -20.54762,2.10869 -27.07256,5.20587 -28.96398,13.74758 -0.70852,3.20038 -9.46788,22.28071 -19.46515,42.40057 -9.99726,20.12004 -22.5039,46.89107 -27.79233,59.49138 -5.28843,12.60029 -12.01078,28.17946 -14.93886,34.62026 -2.9279,6.44078 -6.70569,17.6466 -8.39487,24.90179 -1.68916,7.25516 -13.00408,35.99402 -25.14399,63.86431 -12.13992,27.87027 -26.14595,61.03945 -31.12428,73.7093 -18.78797,47.81486 -30.20771,69.43276 -44.61881,84.46336 -12.82274,13.3744 -29.27022,18.9057 -45.01101,15.1377 z m 154.73056,-288.72815 c 7.74938,-16.98303 21.40798,-46.11812 30.3529,-64.74465 16.42541,-34.2045 15.48512,-38.31569 -1.97917,-8.65308 -10.85622,18.43927 -17.55265,33.2407 -30.73769,67.94184 -18.45942,48.5824 -17.9017,49.86931 2.36396,5.45589 z m 63.70237,260.27755 c -11.86377,-3.8332 -16.76681,-6.834 -27.62022,-16.9044 -13.46378,-12.4925 -18.28186,-23.5358 -17.96234,-41.17064 0.293,-16.17859 8.41875,-61.82596 14.45848,-81.22325 9.40884,-30.21704 25.97001,-58.99275 45.8579,-79.67935 16.84735,-17.52389 25.6286,-21.96079 45.32994,-22.90308 14.73001,-0.70461 17.28495,-0.25001 27.29469,4.85585 19.91701,10.15973 24.86242,25.68828 15.81769,49.66792 -8.22978,21.81914 -47.95317,57.52332 -76.05678,68.36138 -8.28018,3.193 -15.63334,7.00079 -16.34026,8.46122 -2.3264,4.80705 -11.78324,58.48794 -11.78324,66.88745 0,23.795 10.64053,25.9031 37.15337,7.3605 13.43989,-9.3995 41.92087,-38.37264 54.22385,-55.16062 19.94775,-27.22004 54.01599,-69.65149 56.76232,-70.69697 4.20237,-1.59971 9.38556,2.03955 10.14911,7.12589 0.64206,4.27734 -27.47061,42.40973 -58.9861,80.00985 -7.80604,9.31326 -19.38745,23.84455 -25.73605,32.29205 -26.17969,34.8329 -51.26142,49.5982 -72.56236,42.7162 z m -34.41447,-74.09287 c 8.429,-33.99591 8.49026,-52.63441 0.0925,-27.89837 -3.95552,11.65007 -8.97565,51.47604 -6.1534,48.81587 0.62819,-0.59225 3.35606,-10.00515 6.06162,-20.9175 z m 64.76055,-67.87888 c 14.84247,-9.89398 25.05343,-19.12178 35.91426,-32.456 10.63852,-13.06129 10.93374,-13.76649 12.22004,-29.19764 1.1817,-14.1737 0.90755,-16.17959 -2.64351,-19.34749 -5.62141,-5.01482 -9.38835,-2.80315 -19.74472,11.59327 -12.47127,17.33642 -39.53581,74.61492 -35.25612,74.61492 0.93424,0 5.21392,-2.34315 9.51005,-5.20706 z"
       id="path22" />
  </g>
</svg>
